<svg width="93" height="50" viewBox="0 0 93 50" fill="none" xmlns="http://www.w3.org/2000/svg">
<path fill-rule="evenodd" clip-rule="evenodd" d="M21.2676 8.17995C20.0817 8.17995 19.1204 9.1413 19.1204 10.3272V16.6667H16.1551C15.0822 16.6667 14.2124 17.5364 14.2124 18.6094C14.2124 19.6823 15.0822 20.5521 16.1551 20.5521H18.9159C19.6218 20.5521 20.194 21.1244 20.194 21.8303C20.194 22.5361 19.6218 23.1084 18.9159 23.1084H12.0652C10.9922 23.1084 10.1224 23.9782 10.1224 25.0511C10.1224 26.1241 10.9922 26.9939 12.0652 26.9939H18.967C19.6447 26.9939 20.194 27.5432 20.194 28.2208C20.194 28.8985 19.6447 29.4478 18.967 29.4478H16.1551C15.0822 29.4478 14.2124 30.3176 14.2124 31.3906C14.2124 32.4635 15.0822 33.3333 16.1551 33.3333H27.4537C32.0561 33.3333 35.787 29.6024 35.787 25C35.787 20.3976 32.0561 16.6667 27.4537 16.6667H23.4149V10.3272C23.4149 9.1413 22.4535 8.17995 21.2676 8.17995ZM27.4537 29.0388C25.2231 29.0388 23.4149 27.2306 23.4149 25C23.4149 22.7694 25.2231 20.9611 27.4537 20.9611C29.6843 20.9611 31.4926 22.7694 31.4926 25C31.4926 27.2306 29.6843 29.0388 27.4537 29.0388Z" fill="#0062FF"/>
<path d="M63.0365 16.5133C59.62 16.5133 56.8504 19.2829 56.8504 22.6994V31.2883C56.8504 32.4742 57.8118 33.4356 58.9977 33.4356C60.1835 33.4356 61.1449 32.4742 61.1449 31.2883V22.6994C61.1449 21.6547 61.9918 20.8078 63.0365 20.8078C64.2224 20.8078 65.1837 19.8464 65.1837 18.6605C65.1837 17.4746 64.2224 16.5133 63.0365 16.5133Z" fill="#0062FF"/>
<path fill-rule="evenodd" clip-rule="evenodd" d="M75.6132 16.6666C80.2156 16.6666 83.9465 20.3976 83.9465 25C83.9465 25.017 83.9465 25.0341 83.9464 25.0511H83.9465V39.6728C83.9465 40.8587 82.9852 41.82 81.7993 41.82C80.6134 41.82 79.652 40.8587 79.652 39.6728V32.2909C78.4556 32.9551 77.0786 33.3333 75.6132 33.3333C71.0108 33.3333 67.2799 29.6023 67.2799 25C67.2799 20.3976 71.0108 16.6666 75.6132 16.6666ZM75.6132 20.9611C73.3826 20.9611 71.5743 22.7694 71.5743 25C71.5743 27.2306 73.3826 29.0388 75.6132 29.0388C77.8438 29.0388 79.652 27.2306 79.652 25C79.652 22.7694 77.8438 20.9611 75.6132 20.9611Z" fill="#0062FF"/>
<path d="M46.3187 33.4356C41.6881 33.4356 37.9343 29.6817 37.9343 25.0511V18.7116C37.9343 17.5258 38.8956 16.5644 40.0815 16.5644C41.2674 16.5644 42.2287 17.5258 42.2287 18.7116V25.0511C42.2287 27.3099 44.0599 29.1411 46.3187 29.1411C48.5776 29.1411 50.4087 27.3099 50.4087 25.0511V18.7116C50.4087 17.5257 51.3701 16.5644 52.5559 16.5644C53.7418 16.5644 54.7032 17.5258 54.7032 18.7116V25.0511C54.7032 29.6817 50.9493 33.4356 46.3187 33.4356Z" fill="#0062FF"/>
<path d="M12.0652 18.6094C12.0652 19.6823 11.1954 20.5521 10.1224 20.5521C9.04948 20.5521 8.17969 19.6823 8.17969 18.6094C8.17969 17.5364 9.04948 16.6667 10.1224 16.6667C11.1954 16.6667 12.0652 17.5364 12.0652 18.6094Z" fill="#0062FF"/>
</svg>
